# xmcd CD database file
#
# Track frame offsets:
#	150
#	11441
#	21429
#	35307
#	45797
#	55223
#	66118
#	76883
#	88594
#	99969
#	111547
#	121964
#	133748
#	146414
#	157584
#	168699
#	179103
#	193506
#
# Disc length: 2715 seconds
#
# Revision: 0
# Processed by: cddbd v1.5.2PL0 Copyright (c) Steve Scherf et al.
# Submitted via: CDex 1.51
#
DISCID=e80a9912
DTITLE=Patsy Cline - The Solid Gold Collection [CD 1)
DYEAR=1900
DGENRE=Country
TTITLE0=Hiding Out
TTITLE1=Turn the Cards Slowly
TTITLE2=A Church, a Courtroom, and then Goodbye
TTITLE3=I Love You Honey
TTITLE4=Come On In (And Make Yourself at Home)
TTITLE5=I Cried All the Way to the Altar
TTITLE6=Stop, Look and Listen
TTITLE7=I've Love and Lost Again
TTITLE8=Dear God (I Go To Church on Sunday)
TTITLE9=Walkin' After Midnight
TTITLE10=Pick Me Up On Your Way Down
TTITLE11=A Poor Man's Roses (or a Rich Man's Gold)
TTITLE12=Fingerprints
TTITLE13=A Stranger in my Arms
TTITLE14=Don't Ever Leave Me Again
TTITLE15=Too Many Secrets
TTITLE16=Then You'll Know
TTITLE17=Three Cigarettes in an Ashtray
EXTD=
EXTT0=
EXTT1=
EXTT2=
EXTT3=
EXTT4=
EXTT5=
EXTT6=
EXTT7=
EXTT8=
EXTT9=
EXTT10=
EXTT11=
EXTT12=
EXTT13=
EXTT14=
EXTT15=
EXTT16=
EXTT17=
PLAYORDER=
